<?xml version="1.0" encoding="utf-8"?>
<!-- Generator: Adobe Illustrator 24.1.0, SVG Export Plug-In . SVG Version: 6.00 Build 0)  -->
<svg version="1.1" id="Layer_1" xmlns="http://www.w3.org/2000/svg" xmlns:xlink="http://www.w3.org/1999/xlink" x="0px" y="0px"
	 viewBox="0 0 135 97" style="enable-background:new 0 0 135 97;" xml:space="preserve">
<style type="text/css">
	.st0{fill:#FFFFFF;}
</style>
<path class="st0" d="M5,70.4l2.4,0h1.2h0.6h0.1h0h0h0l0.1,0l0.1,0.1l0.1,0.1l0,0l0,0v0l0,0l0.2,0.2l0.4,0.3l0.8,0.7l3.3,2.7l0.8,0.7
	l0.2,0.2l0.1,0l0,0v0l0,0l0,0l0.1,0.1l0.1,0.1l0,0.1l0,0.1l0,0l0,0l0,0l0,0l-0.4,0.4l-0.9,0.7l-1.8,1.4l-1.7,1.4l-0.9,0.7l-0.4,0.4
	l-0.1,0h0H9.3H9.1l-2.5,0H5.5l-0.3,0H5.1h0l0,0l0.1,0l0.2-0.2l0.9-0.7L8,78.3l1.8-1.4l0.9-0.7l0.5-0.4l0.2-0.2l0,0l0,0l0,0l-0.1,0
	l-0.9-0.7l-1.8-1.5L5,70.4z"/>
<path class="st0" d="M4.8,73.7c1,0,1.8,0.8,1.8,1.8c0,0,0,1-0.8,1.8c-1,0-1,0-2,0c-0.8-0.8-0.8-1.8-0.8-1.8
	C2.9,74.6,3.8,73.7,4.8,73.7z"/>
<path class="st0" d="M130,70.4l-2.3,0h-1.2h-0.6h-0.1h0h0h0l-0.1,0l-0.1,0.1l-0.1,0.1l0,0l0,0l0,0l0,0l-0.2,0.2l-0.4,0.3l-0.8,0.7
	l-3.3,2.7l-0.8,0.7l-0.2,0.2l0,0l0,0l0,0l0,0l0,0l-0.1,0.1l-0.1,0.1l0,0.1l0,0.1l0,0l0,0l0,0l0,0l0.4,0.4l0.9,0.7l1.8,1.4l1.7,1.4
	l0.9,0.7l0.4,0.4l0.1,0h0h0.1h0.2l2.4,0h1.2l0.3,0h0.1h0l0,0l-0.1,0l-0.2-0.2l-0.9-0.7l-1.8-1.5l-1.8-1.4l-0.9-0.7l-0.5-0.4
	l-0.2-0.2l0,0l0,0l0,0l0.1,0l0.9-0.7l1.8-1.5L130,70.4z"/>
<path class="st0" d="M130.2,73.7c-1,0-1.8,0.8-1.8,1.8c0,0,0,1,0.8,1.8c1,0,1,0,2,0c0.8-0.8,0.8-1.8,0.8-1.8
	C132.1,74.6,131.2,73.7,130.2,73.7z"/>
<path class="st0" d="M34.4,94.8l0-0.1l-0.1-0.2l-0.1-0.3l-0.1-0.4L34,93.4l-0.1-0.5l-0.1-0.5l-0.1-0.6l-0.1-0.6l-0.3-1.3L32.6,87
	l-0.3-1.3L32.2,85L32,84.4l-0.1-0.6l-0.1-0.5l-0.1-0.5l-0.1-0.4l-0.1-0.3l-0.1-0.3l0-0.2l0-0.1l0,0h0h-0.1H31h-0.3h-0.4H30h-0.9
	h-0.9h-0.4h-0.3h-0.2h-0.1h-0.1h0l0,0l0,0.1l0,0.2L27,82.2l-0.1,0.4L26.8,83l-0.1,0.5L26.6,84l-0.1,0.6l-0.1,0.6l-0.1,0.6l-0.3,1.3
	l-0.3,1.4l-0.3,1.4L25,91.3l-0.1,0.6l-0.1,0.6L24.6,93l-0.1,0.5l-0.1,0.4l-0.1,0.4l-0.1,0.3l0,0.2l0,0.1l0,0h0h0.1h0.2h0.2H25h0.6
	h0.6h0.2h0.2h0.2h0.1h0l0,0l0-0.1l0-0.1l0-0.2l0-0.2l0.2-1l0-0.2l0-0.2l0-0.2l0-0.1l0-0.1l0,0h0.1h0.2h0.3h0.3H29h0.7h0.3h0.3h0.3
	h0.2h0.1l0,0l0,0.1l0,0.1l0,0.2l0,0.2l0.1,0.5l0.1,0.5l0.1,0.4l0,0.2l0,0.1l0,0.1l0,0h0.1h0.1h0.2h0.2h0.6h0.6h0.6H34h0.2L34.4,94.8
	L34.4,94.8L34.4,94.8z M30.5,90.7L30.5,90.7L30.5,90.7h-0.1h-0.1h-0.2h-0.2h-0.2h-0.5h-0.5h-0.2h-0.2H28h-0.1h-0.1h0h0h0l0,0l0-0.1
	l0-0.1l0-0.1l0-0.2l0-0.2l0-0.2l0-0.2l0.1-0.2l0.1-0.3l0.1-0.6l0.1-0.6l0.1-0.6l0.1-0.6l0.1-0.6l0.1-0.6l0.1-0.3l0.1-0.2l0-0.2
	l0-0.2l0-0.2l0-0.2l0-0.1l0-0.1l0-0.1l0,0l0,0l0,0.1l0,0.1l0,0.1l0,0.2l0,0.2l0,0.2l0,0.2l0.1,0.2l0.1,0.3l0.1,0.6l0.1,0.6l0.1,0.6
	L30,88l0.1,0.6l0.1,0.6l0.1,0.3l0.1,0.2l0,0.2l0,0.2l0,0.2l0,0.2l0,0.1L30.5,90.7L30.5,90.7L30.5,90.7L30.5,90.7z"/>
<path class="st0" d="M44.3,94c0-0.7,0-0.7,0-0.7c0-2,0-2,0-2c0-1.5-0.7-2.4-2-2.8c0,0,1.3-0.4,1.9-1.3c0-1.4,0-1.4,0-1.4
	c0-1,0-1,0-1c0-2-1.5-3.1-4.4-3.1c0,0,0,0-4.5,0c0,13.3,0,13.3,0,13.3h2.9c0,0,0,0,0-5.4c1,0,1,0,1,0c1.3,0,1.9,0.6,1.9,1.7
	c0,0,0,0,0,2.1c0,0,0,0,0,0.5c0,0.4,0.1,0.6,0.1,0.6c0,0.1,0.1,0.3,0.2,0.5h3C44.6,94.9,44.4,94.5,44.3,94z M41.3,84.9L41.3,84.9
	L41.3,84.9L41.3,84.9v0.2v0.1v0.2v0.2v0.2V86V86v0.1v0.1v0v0v0v0l0,0.1l0,0.1l0,0.1l0,0.1l0,0.1L41.1,87L41,87.1l-0.1,0.1l-0.1,0.1
	l-0.1,0.1l-0.1,0.1l-0.1,0.1l-0.1,0l-0.1,0l-0.2,0l-0.2,0l-0.2,0l-0.2,0h0h0h0h0h0h0h-0.1h-0.1h-0.2H39h-0.2h-0.2h-0.1h-0.1h-0.1h0
	h0l0,0v0v0v-0.1v-0.1v-0.1v-0.1v-0.1V87v-0.1v-0.1v-0.3v-0.3v-0.3v-0.7v-0.3v-0.3v-0.3v-0.1V84v-0.1v-0.1v-0.1v-0.1v-0.1v0v0v0h0h0
	h0.1h0.1h0.1h0.1h0.2h0.2h0.2h0.1h0.1h0.1h0.1h0h0h0h0h0l0.2,0l0.1,0l0.1,0l0.1,0l0.1,0l0.1,0l0.1,0.1l0.1,0.1l0.1,0.1L41,84
	l0.1,0.1l0.1,0.1l0,0.1l0,0.1l0,0.1l0,0.1l0,0.1L41.3,84.9L41.3,84.9L41.3,84.9z"/>
<path class="st0" d="M45.2,81.7L45.2,81.7h0.1h0.1h0.2h0.2h0.3h0.3h0.4h0.8h0.9h1.9h0.9h0.8h0.4h0.3h0.3h0.3h0.2h0.2H54h0.1l0,0v0.1
	v0.1V82v0.3v0.8v0.2v0.1v0.1v0l0,0H54h-0.2h-0.2h-0.3h-0.3h-0.6h-0.6h-0.3h-0.2h-0.2h-0.1h0v0v0.1v0.2v0.2v0.3v0.3v0.4v0.4V86v0.5
	v0.5v1.1v1.2v1.2v1.1v0.5v0.5v0.4v0.4v0.4v0.3v0.2v0.2v0.1v0H51h-0.1h-0.2h-0.2h-0.3h-0.6h-0.6h-0.3h-0.2h-0.2h-0.1h0l0,0v-0.1v-0.2
	v-0.2v-0.3v-0.4v-0.4v-0.4v-0.5v-0.5v-1.1v-1.2v-1.2v-1.1v-0.5V86v-0.5v-0.4v-0.4v-0.3v-0.3v-0.2v-0.2v-0.1v0h0h-0.1h-0.2h-0.2h-0.3
	h-0.6h-0.6h-0.3h-0.3h-0.2h-0.2h-0.1l0,0v0v-0.1v-0.1v-0.2v-0.4v-0.4V82v-0.1v-0.1V81.7L45.2,81.7z"/>
<path class="st0" d="M59.1,84.8l0-0.4l0-0.3l0.1-0.3l0.1-0.3l0.1-0.3l0.1-0.2l0.2-0.2l0.2-0.2l0.2-0.2l0.2-0.2l0.3-0.2l0.3-0.1
	l0.3-0.1l0.3-0.1l0.4-0.1l0.4-0.1l0.4,0l0.4,0l0.5,0l0.4,0l0.4,0l0.4,0.1l0.4,0.1l0.3,0.1l0.3,0.1l0.3,0.1l0.3,0.2l0.2,0.2l0.2,0.2
	l0.2,0.2l0.2,0.2l0.1,0.3l0.1,0.3l0.1,0.3l0.1,0.3l0,0.3l0,0.2v0v0v0.1v0.2v0.2v0.2v0v0h0h-0.1h-0.1h-0.1H67h-0.4h-0.4h-0.4h-0.4
	h-0.2H65h-0.1h-0.1h0v0v0v-0.1v-0.1V85v-0.2v-0.1v0v0l0-0.1l0-0.3l-0.1-0.2l-0.1-0.2l-0.1-0.2l-0.2-0.1l-0.2-0.1l-0.2-0.1l-0.3,0
	l-0.3,0l-0.3,0l-0.3,0.1l-0.2,0.1l-0.2,0.1l-0.2,0.1L62.1,84L62,84.2L62,84.4l0,0.3l0,0.4l0.1,0.4l0.2,0.4l0.3,0.4l0.2,0.2l0,0l0,0
	l0,0l0.2,0.1l0.4,0.3l0.2,0.2l0.1,0.1l0.1,0.1l0.1,0.1l0.2,0.2l0.1,0.1l0.1,0.1l0,0l0,0l0.1,0.1l0.1,0.1l0,0l0.1,0l0.1,0.1l0.2,0.2
	l0.2,0.2l0.2,0.2l0.2,0.1l0.2,0.2l0.4,0.4l0.2,0.2l0,0l0,0l0,0l0.2,0.2l0.3,0.5l0.2,0.5l0.1,0.5l0,0.5l0,0.3l0,0.3l-0.1,0.3
	l-0.1,0.3l-0.1,0.3l-0.1,0.2l-0.2,0.2l-0.2,0.2L66.5,94l-0.2,0.2L66,94.4l-0.3,0.1l-0.3,0.1l-0.3,0.1l-0.4,0.1l-0.4,0.1l-0.4,0
	l-0.4,0l-0.5,0l-0.4,0l-0.4,0l-0.4-0.1l-0.4-0.1L61,94.6l-0.3-0.1l-0.3-0.1l-0.3-0.2l-0.2-0.2l-0.2-0.2l-0.2-0.2l-0.2-0.2L59.3,93
	l-0.1-0.3l-0.1-0.3L59,92.1l0-0.3l0-0.2v0v0v-0.1v-0.2v-0.2v-0.4v-0.2v-0.1v-0.1v0h0h0.1h0.1h0.1h0.2h0.4h0.4h0.4h0.4h0.2h0.1h0.1
	h0.1h0v0v0.1v0.2v0.2v0.4v0.2v0.2v0.1v0v0l0,0.1l0,0.3l0.1,0.2l0.1,0.2l0.1,0.2l0.2,0.1l0.2,0.1l0.2,0.1l0.3,0l0.3,0l0.3,0l0.3-0.1
	l0.2-0.1l0.2-0.1l0.2-0.1l0.1-0.2l0.1-0.2l0.1-0.2l0-0.3l0-0.4L64.5,91l-0.2-0.4L64,90.2l-0.2-0.2l0,0l0,0l0,0l-0.2-0.1l-0.4-0.3
	L63,89.4l0,0l0,0l0,0l-0.1-0.1l-0.1-0.1l-0.2-0.1l-0.3-0.2l-0.1-0.1L62,88.7l-0.1,0l0,0l-0.1,0l-0.5-0.3L60.9,88l-0.4-0.4l-0.4-0.4
	l-0.2-0.2l-0.2-0.2l-0.3-0.5l-0.2-0.5l-0.1-0.5L59.1,84.8z"/>
<path class="st0" d="M68.4,81.7L68.4,81.7h0.1h0.2h0.2h0.2h0.3h0.3h0.4h0.8h0.9h1.9h0.9h0.8h0.4h0.3h0.3h0.3h0.2h0.2h0.1h0.1l0,0
	v0.1v0.1V82v0.3v0.8v0.2v0.1v0.1v0l0,0h-0.1H77h-0.2h-0.3h-0.3h-0.6h-0.6h-0.3h-0.2h-0.2h-0.1h0l0,0v0.1v0.2v0.2v0.3v0.3v0.4v0.4V86
	v0.5v0.5v1.1v1.2v1.2v1.1v0.5v0.5v0.4v0.4v0.4v0.3v0.2v0.2v0.1v0h0h-0.1h-0.2h-0.2h-0.3h-0.6h-0.6H72h-0.2h-0.2h-0.1h-0.1v0v-0.1
	v-0.2v-0.2v-0.3v-0.4v-0.4v-0.4v-0.5v-0.5v-1.1v-1.2v-1.2v-1.1v-0.5V86v-0.5v-0.4v-0.4v-0.3v-0.3v-0.2v-0.2v-0.1l0,0h0h-0.1h-0.2
	h-0.2h-0.3h-0.6h-0.6h-0.3h-0.3h-0.2h-0.2h-0.1l0,0v0v-0.1v-0.1v-0.2v-0.4v-0.4V82v-0.1v-0.1V81.7L68.4,81.7z"/>
<path class="st0" d="M81.3,81.7v10.1c0,0,0,0.8,0.5,1.3c1,0,1,0,2,0c0.5-0.4,0.5-1.3,0.5-1.3V81.7c0,0,0,0,2.7,0c0,9.9,0,9.9,0,9.9
	c0,2.2-1.4,3.3-4.3,3.3c0,0-2.9,0-4.3-1.1c0-2.2,0-2.2,0-2.2c0-9.9,0-9.9,0-9.9H81.3L81.3,81.7z"/>
<path class="st0" d="M97.6,84.9l0-0.2l0-0.3l0-0.3l-0.1-0.3l-0.1-0.3l-0.1-0.3L97.1,83l-0.2-0.2l-0.2-0.2l-0.2-0.2l-0.2-0.2L96,82.1
	L95.7,82l-0.3-0.1l-0.3-0.1l-0.4-0.1l-0.4,0l-0.4,0l-0.2,0h-0.1h0h-0.1h-0.1h-0.2H93h-0.3h-0.3h-0.7h-0.7h-0.6h-0.3h-0.3h-0.2h-0.2
	h-0.1h0v0v0.1v0.1v0.2v0.2v0.3v0.3v0.4v0.4v0.4V85v1v1v2.2v1.1v1v0.9v0.4V93v0.4v0.3v0.3v0.3v0.2v0.2v0.1v0.1l0,0h0.1h0.1h0.2H90
	h0.3h0.6h1.4h0.3h0.3h0.3h0.2h0.2h0.1h0h0h0h0.1l0.4,0l0.4,0l0.4-0.1l0.3-0.1l0.3-0.1l0.3-0.1l0.3-0.1l0.3-0.2l0.2-0.2l0.2-0.2
	l0.2-0.2l0.2-0.2l0.1-0.2l0.1-0.3l0.1-0.3l0.1-0.3l0-0.3l0-0.3v0v0v0v0v-0.2v-0.2v-0.3v-0.4V90v-0.5v-2.2v-0.5v-0.5v-0.4v-0.4v-0.3
	V85L97.6,84.9L97.6,84.9L97.6,84.9L97.6,84.9L97.6,84.9z M94.9,84.8L94.9,84.8V85v0.1v0.1v0.2v0.4v0.4v0.5v0.5v1.1v1.1v0.5v0.5v0.4
	v0.4v0.2v0.1v0.1v0.1v0.1v0v0v0l0,0.1l0,0.3l-0.1,0.2l-0.1,0.2l-0.1,0.2l-0.2,0.1l-0.2,0.1L94,92.9l-0.3,0l-0.1,0h-0.1h0h0h0h-0.2
	h-0.2h-0.2h-0.5h-0.2h-0.1h-0.1h0l0,0v0v-0.1v-0.1v-0.2v-0.2v-0.2v-0.2v-0.3v-0.3v-0.3v-0.7v-0.7v-0.8v-1.5v-0.8v-0.7v-0.7V85v-0.3
	v-0.3v-0.2V84v-0.2v-0.1v-0.1v-0.1v0h0h0h0.1h0.1h0.2h0.2h0.5h0.2h0.1h0.1h0h0h0.1l0.1,0l0.3,0l0.2,0.1l0.2,0.1l0.2,0.1l0.1,0.2
	l0.1,0.2l0.1,0.2l0,0.3L94.9,84.8L94.9,84.8L94.9,84.8L94.9,84.8L94.9,84.8z"/>
<path class="st0" d="M99.7,81.7h2.9c0,0,0,0,0,13c-2.9,0-2.9,0-2.9,0V81.7z"/>
<path class="st0" d="M112.9,84.9l0-0.2l0-0.3l0-0.3l-0.1-0.3l-0.1-0.3l-0.1-0.3l-0.1-0.2l-0.2-0.2l-0.2-0.2l-0.2-0.2l-0.2-0.2
	l-0.3-0.1l-0.3-0.1l-0.3-0.1l-0.3-0.1l-0.4-0.1l-0.4,0l-0.4,0l-0.4,0l-0.4,0l-0.4,0l-0.4,0.1l-0.4,0.1l-0.3,0.1l-0.3,0.1l-0.3,0.1
	l-0.3,0.2l-0.2,0.2l-0.2,0.2l-0.2,0.2l-0.2,0.2l-0.1,0.2l-0.1,0.3l-0.1,0.3l-0.1,0.3l0,0.3l0,0.3v0v0v0.2v0.3v0.3v0.4v0.5v0.5v0.5
	v1.1v1.1v0.5v0.4v0.4v0.3v0.2v0.1v0v0v0v0l0,0.1l0,0.3l0,0.3l0.1,0.3L105,93l0.1,0.3l0.1,0.2l0.2,0.2l0.2,0.2l0.2,0.2l0.2,0.2
	l0.3,0.1l0.3,0.1l0.3,0.1l0.3,0.1l0.4,0.1l0.4,0l0.4,0l0.9,0l0.4,0l0.4-0.1l0.4-0.1l0.3-0.1l0.3-0.1l0.3-0.1l0.3-0.1l0.2-0.2
	l0.2-0.2l0.2-0.2l0.2-0.2l0.1-0.2l0.1-0.3l0.1-0.3l0.1-0.3l0-0.3l0-0.3v0v0v0v0v-0.2v-0.2v-0.3v-0.4V90v-0.5v-2.2v-0.5v-0.5v-0.4
	v-0.4v-0.3V85L112.9,84.9L112.9,84.9L112.9,84.9L112.9,84.9L112.9,84.9z M110.2,84.9L110.2,84.9v0.2v0.1v0.2v0.2V86v0.5V87v1.1v1.1
	v0.5v0.5v0.5v0.4v0.2v0.1v0.1v0.1v0.1v0v0v0.1l0,0.3l-0.1,0.2l-0.1,0.2l-0.1,0.2l-0.2,0.1l-0.2,0.1l-0.2,0.1l-0.3,0l-0.3,0l-0.3,0
	l-0.3-0.1l-0.2-0.1l-0.2-0.1l-0.1-0.1l-0.1-0.2l-0.1-0.2l0-0.2l0-0.3v0v0v-0.1v-0.1v-0.1v-0.1v-0.2v-0.2v-0.4V90v-0.5v-0.6v-1.1
	v-0.6v-0.5v-0.5v-0.4v-0.4v-0.2v-0.1v-0.1v-0.1v-0.1v0v0v-0.1l0-0.1l0-0.2l0.1-0.2l0.1-0.2l0.1-0.2l0.2-0.1l0.2-0.1l0.2-0.1l0.3,0
	l0.3,0l0.3,0l0.2,0.1l0.2,0.1l0.2,0.1L110,84l0.1,0.2l0.1,0.2l0,0.2l0,0.1L110.2,84.9L110.2,84.9L110.2,84.9z"/>
<path class="st0" d="M52.1,7.2l0.1-0.1l0.1-0.2l0.1-0.3l0.1-0.4l0-0.2l0-0.1l0,0l0-0.2l0,0l0-0.1l0-0.1l0-0.1l0-0.2V5l0-0.2l0-0.1
	l0-0.1v0l-0.1-0.4l-0.1-0.3l-0.1-0.2l-0.1-0.1l-0.2-0.3l-0.2-0.3l-0.2-0.2l-0.3-0.2l-0.3-0.2l-0.3-0.1l-0.3-0.1l-0.1,0l-0.2,0h-0.3
	l-0.3,0.1l-0.3,0.1l-0.6,0.3l-0.5,0.4l-0.2,0.2l-0.3,0.3L47.5,4l-0.2,0.3l-0.1,0.1l-0.1,0.2L46.9,5l-0.1,0.4l-0.2,0.8l0,0.4l0,0.2
	l0,0.2l0,0.7l0.1,0.7L47,9.1l0.3,0.6l0.2,0.3l0.2,0.3l0.4,0.5l0.4,0.4l0.4,0.3l0.4,0.3l0.4,0.2l0.4,0.2l0,0l0.1,0l0.1,0l0.1,0l0.1,0
	l0.1,0l0.1,0l0.1,0l0.1,0l0.1,0l0.1,0l0.1,0l0.1,0l0.1,0l0.1,0l0.1,0l0.1,0l0.1,0l0,0l0.1,0l0.1,0l0.5,0l0.1,0l0,0l0.2,0l0.1,0
	l0.1,0l0,0l0.5-0.2l0,0l0.1,0l0.1,0l0,0l0.2-0.1l0,0l0.1,0l0.1,0l0,0L54,12l0,0l0.1,0l0.1-0.1l0,0l0.5-0.4l0,0l0.1-0.1l0.1-0.1l0,0
	l0.1-0.1l0,0l0.1-0.1l0.1-0.1l0,0l0.1-0.1l0,0l0.1-0.1l0.1-0.1l0,0l0.1-0.2l0,0l0.1-0.1l0.1-0.1l0,0l0.1-0.2l0.3-0.4l0-0.1l0,0
	l0.1-0.1l0,0l0-0.1l0-0.1l0,0l0.3-0.4l0,0l0-0.1l0.1-0.1L57,8.5l0,0l0-0.1l0.5-0.7l0,0l0-0.1l0.1-0.1l0.1-0.1l0,0l0-0.1L58,7
	l0.5-0.6L59,5.9l0.2-0.2l0.2-0.2l0.5-0.3L60.4,5l0.5-0.1l0,0l0.1,0l0.1,0l0,0l0.1,0l0,0l0.1,0h0.1h0l0.1,0l0,0l0.1,0l0.1,0L62.1,5
	l0,0l0.1,0l0.1,0l0.2,0.1l0.3,0.2l0.3,0.2l0.2,0.3l0.2,0.3l0.1,0.4l0,0.2l0,0.1l0,0.1v0.4l0,0.1l0,0l0,0.1l0,0.1l0,0.1l0,0l-0.1,0.4
	l-0.1,0.3l-0.1,0.2l-0.1,0.1l-0.2,0.3L63,9.3l-0.1,0.1l-0.2,0.1l-0.2,0.1l-0.1,0l0,0l0-0.1l-0.2-0.3L62,9l0-0.3l0-0.3L62.1,8l0-0.1
	l0,0l0,0l0,0l0-0.1l0.1-0.2l0.2-0.5l0.2-0.5l0.2-0.5l0.1-0.2l0-0.1l0,0l0,0l-0.1,0.1L62.6,6l-0.4,0.3l-0.4,0.3l-0.4,0.3L61.2,7
	l-0.1,0.1l0,0v0l0,0L61,7.2l-0.1,0.1l-0.1,0.1l0,0l0,0l-0.1,0.1l0,0l0,0.1l0,0.1l0,0l-0.1,0.1l0,0l0,0.1l0,0.1l0,0l0,0.1l0,0l0,0.1
	l0,0.1l0,0l0,0.2l0,0l0,0.1l0,0.1l0,0l0,0.2l0,0l0,0.1l0,0.1l0,0l0,0.3l0.1,0.5l0.1,0.5l0.2,0.5l0.3,0.4l0.3,0.4l0.1,0.1l0.1,0.1
	l0.1,0.1l0,0l0.1,0.1l0.1,0.1l0.1,0l0,0l0.1,0.1l0.1,0l0.1,0l0,0l0.1,0l0.1,0l0.1,0l0,0l0.1,0l0.1,0l0.1,0l0,0l0.1,0h0l0.1,0l0.1,0
	l0,0l0.5-0.1l0,0l0.1,0l0.1,0l0,0l0.1-0.1l0,0l0.1,0l0.1,0l0,0l0.1-0.1l0,0l0.1-0.1l0.1-0.1l0,0l0.4-0.4l0,0l0.1-0.1l0.1-0.1l0,0
	l0.1-0.1l0,0l0.1-0.1l0.1-0.1l0,0l0.1-0.2l0,0l0.1-0.1l0-0.1l0,0l0.1-0.2l0,0l0.1-0.1l0-0.1l0,0l0.1-0.2l0,0l0-0.1l0-0.1l0-0.1
	l0-0.1l0-0.1l0-0.1l0-0.1l0-0.1l0-0.1l0-0.1l0-0.1l0-0.1l0-0.1l0-0.1l0-0.1l0-0.1l0-0.1V8.3l0-0.1l0-0.1V8l0-0.1l0-0.1V7.7l0-0.1
	V7.5l0-0.1l0-0.1l0-0.1l0-0.1l0-0.1L66,6.5l0-0.1l0-0.1l0-0.1l0-0.1l0-0.1l0-0.1l0-0.1l0-0.1l0-0.1l0-0.1l0-0.1l0-0.1l0-0.1l0-0.1
	l-0.3-0.5l-0.1-0.1l0,0l0-0.1l-0.1-0.1l0,0l0-0.1L65,4.1l0,0L65,4L64.9,4l0,0l-0.1-0.1l-0.1-0.1l0,0l-0.1-0.1l0,0l-0.1-0.1l-0.1-0.1
	l0,0l-0.1-0.1l0,0l-0.1-0.1L64,3.1l0,0L63.8,3l0,0l-0.1-0.1l-0.1-0.1l0,0l-0.2-0.1l0,0l-0.1,0l-0.1-0.1l0,0l-0.1-0.1l-0.3-0.1
	l-0.3-0.1l-0.4-0.1l-0.7-0.1l-0.4,0l-0.1,0l-0.2,0l-0.3,0l-0.4,0.1l-0.7,0.2l-0.4,0.2l-0.2,0.1l-0.1,0l0,0l-0.1,0.1l-0.3,0.2
	l-0.1,0.1l0,0l-0.1,0.1l-0.1,0.1L58,3.4l0,0l-0.7,0.7l-0.1,0.1l0,0l-0.1,0.1l0,0L57,4.4l-0.1,0.1l0,0L56.5,5l0,0l-0.1,0.1l-0.1,0.1
	l0,0l-0.1,0.1l0,0l-0.1,0.1l-0.1,0.1l0,0L56,5.7l0,0l-0.1,0.1l-0.1,0.1l0,0l-0.4,0.5l0,0l-0.1,0.1l-0.1,0.1l0,0l-0.1,0.2l0,0L55,6.9
	L55,7l0,0l-0.1,0.2l0,0l0,0.1l0,0.1l0,0l-0.3,0.4l0,0l0,0.1l-0.1,0.1l-0.1,0.2l-0.3,0.3l-0.3,0.3l-0.3,0.2l-0.5,0.3l-0.3,0.1
	l-0.3,0.1l-0.3,0l-0.3,0l-0.1,0l-0.1,0l-0.1,0l-0.3-0.1l-0.6-0.3l-0.3-0.2l-0.2-0.2l-0.2-0.2l-0.2-0.3l-0.2-0.3l-0.1-0.4l-0.1-0.4
	l-0.1-0.4l0-0.5l0.1-0.4l0.1-0.3l0.1-0.2L49.5,5l0.2-0.1l0.3,0l0.2,0L50.3,5l0.2,0.3l0.2,0.2l0.1,0.2l0.1,0.2l0,0.2l0,0.2l0,0.3
	l0,0.1l0,0.1l0,0l0,0.1l0,0.1l0,0.2l-0.2,0.9l-0.1,0.4l0,0.1l0,0.1l0,0l0.1-0.1l0.1-0.1l0.1-0.1l0.7-0.6l0.3-0.2l0.1-0.1l0,0L52,7.4
	L52.1,7.2L52.1,7.2L52.1,7.2z"/>
<path class="st0" d="M104.3,42h0.1h0.4h0.6h0.8h1.8h2h1.7h0.7h0.5h0.3l0,0.1v0.2v0.4v1.1v1.5v1.8v4.1v4.2v1.9V59v1.3v0.5v0.4l0,0.4
	l-0.1,2.2l-0.2,2l-0.3,1.8l-0.4,1.7l-0.5,1.5l-0.6,1.3l-0.7,1.2l-0.8,1l-0.9,0.8l-1,0.7l-1.1,0.5l-1.2,0.3l-1.3,0.2l-1.4,0l-1.3-0.2
	l-1.2-0.4l-1.1-0.5l-1-0.7l-0.9-0.9l-0.8-1l-0.7-1.2l-0.6-1.4L95.1,69l-0.4-1.7l-0.2-1.9l-0.1-2l0-1.1l0-0.6l0-0.3v-0.1v-0.2v-0.4
	v-0.6v-0.8v-1v-1.2v-2.8v-3.2v-3.4v-7v-3.3v-2.9v-1.3v-1.1v-0.9v-0.7V30v-0.3v-0.1v0l0-0.3l0-1.1l0.1-2.1l0.2-1.9l0.3-1.7l0.4-1.6
	l0.5-1.4l0.6-1.2l0.7-1.1l0.8-0.9l0.9-0.7l1-0.6l1.2-0.4l1.3-0.2l1.4-0.1l1.3,0.1l1.2,0.3l1.1,0.5l1,0.6l0.9,0.8l0.8,1l0.7,1.1
	l0.6,1.3l0.5,1.5l0.4,1.6l0.3,1.8l0.2,2l0.1,2.1l0,0.6l0,0.1v0v0v0v0.2v0.8v1.2v2.5v0.9v0.2l0,0.1H113h-0.3h-1h-2.6H108h-0.4h-0.3
	h-0.1l0-0.1v-0.2v-0.4v-1.2v-1.4v-1.4v-1.2v-0.4V29V29v0v-0.2l0-0.8l-0.2-1.5l-0.3-1.2l-0.5-1l-0.6-0.7l-0.7-0.4L104,23l-0.9,0.1
	l-0.8,0.4l-0.6,0.6l-0.5,0.9l-0.3,1.2l-0.2,1.4l0,0.8l0,0.4V29V29v0.3v0.5v0.8v1v1.1V34v3v3.4v3.6v7.2v3.3v2.9v1.2v1.1v0.9v0.7v0.5
	V62v0.1v0.2l0,0.4l0.1,1.5l0.3,1.3l0.4,1l0.6,0.7l0.7,0.5l0.9,0.2l0.9-0.1l0.8-0.3L106,67l0.5-0.8l0.4-1.1l0.2-1.4l0.1-1.6v-0.2
	v-0.5v-0.7v-0.9v-2.3v-2.5v-2.2v-0.9v-0.7v-0.4l0-0.1h-0.2h-0.5h-1.2h-0.5h-0.3l0,0v-0.3V50v-0.7v-1.7v-1.9v-1.8v-0.7v-0.6v-0.4V42z
	"/>
<path class="st0" d="M75.9,31.8v44.3c0,0,0,0-5.7,0c0-61.1,0-61.1,0-61.1h7.9c0,0,0,0,6.5,36.6c0-36.6,0-36.6,0-36.6h5.6
	c0,0,0,0,0,61.1c-6.5,0-6.5,0-6.5,0L75.9,31.8z"/>
<path class="st0" d="M53.5,14.9v47.2c0,0,0,4,1.1,6c2.2,0,2.2,0,4.4,0c1.1-2,1.1-6,1.1-6V14.9c0,0,0,0,6,0c0,46.6,0,46.6,0,46.6
	c0,10.2-3.1,15.4-9.4,15.4c0,0-6.3,0-9.4-5.1c0-10.2,0-10.2,0-10.2c0-46.6,0-46.6,0-46.6H53.5L53.5,14.9z"/>
<path class="st0" d="M43.5,30.4l0-0.8l-0.2-3l-0.4-2.7l-0.6-2.3l-0.9-1.9l-1.1-1.6l-1.3-1.2L37.6,16l-1.8-0.5l-1-0.1l-0.5,0l-0.2,0
	h0H34h-0.3h-1h-1.3h-3.2h-1.5h-1.3h-0.9h-0.2h-0.1v0.1v0.4v0.6v0.9v1.1v1.3v1.5v1.6v1.8v1.9v4.2v4.6v4.9v10v4.9v4.7v4.3v2V68v1.7
	v1.6v1.4v1.2v1v0.8v0.5v0.3l0,0h0.2h0.3h0.4h1.2h1.5H31h1.4h1.1h0.4h0.2h0.1h0h0.1l1-0.1l1.8-0.4l1.6-0.8l1.4-1.1l1.1-1.5l0.9-1.8
	l0.7-2.2l0.5-2.6l0.2-2.9l0-1.6v-0.2v0v0v-0.2v-0.7v-1.1v-1.5v-1.8V54v-2.3v-10v-2.4v-2.2v-2v-1.7V32v-1v-0.3v-0.2v0v0L43.5,30.4z
	 M37.2,30.2v0.2v0.4v0.5v0.6v0.7v1.7v2v2.2v2.4V46v5.1v2.4v2.2v2v1.7v0.7v0.6v0.5v0.4v0.2v0.1v0.1v0.2l0,0.3l-0.1,1.2l-0.1,1
	l-0.2,0.9l-0.3,0.7l-0.4,0.6l-0.5,0.5l-0.5,0.3l-0.6,0.2l-0.3,0l-0.1,0h0h-0.2h-0.4h-1.1h-1.1h-0.4h-0.3l-0.1,0v-0.2v-0.4v-0.6v-0.7
	v-0.9v-1V63v-1.2v-1.3V59v-3.1v-3.3V49v-7.1v-3.5v-3.3v-3v-1.4v-1.3v-1.2v-1v-0.9v-0.8v-0.6v-0.5v-0.3v-0.1h0.1h0.3h0.5h0.5h1.1h0.5
	h0.3H34h0l0.1,0l0.3,0l0.6,0.2l0.5,0.3l0.5,0.5l0.4,0.6l0.3,0.7l0.2,0.9l0.1,1l0.1,1.2l0,0.3V30V30V30.2z"/>
</svg>
